HIERARCHY
ROOT hips
{
	OFFSET -0.003675 0.299928 -0.021708
	CHANNELS 6 Xposition Yposition Zposition Xrotation Yrotation Zrotation
	JOINT LowerBack
	{
		OFFSET 0.000919 0.177588 0.009275
		CHANNELS 3 Xrotation Yrotation Zrotation
		JOINT spine
		{
			OFFSET 0.000919 0.177588 0.009275
			CHANNELS 3 Xrotation Yrotation Zrotation
			JOINT chest
			{
				OFFSET 0.000456 0.100015 0.004638
				CHANNELS 3 Xrotation Yrotation Zrotation
				JOINT neck
				{
					OFFSET 0.000456 0.100015 0.004638
					CHANNELS 3 Xrotation Yrotation Zrotation
					JOINT head
					{
						OFFSET 0.000924 0.155147 0.009274
						CHANNELS 6 Xposition Yposition Zposition Xrotation Yrotation Zrotation
						End Site
						{
							OFFSET 0.000000 0.153400 0.000000
						}
					}
				}
				JOINT shoulder.L
				{
					OFFSET 0.019937 0.078966 0.057518
					CHANNELS 6 Xposition Yposition Zposition Yrotation Xrotation Zrotation
					JOINT upper_arm.L
					{
						OFFSET 0.177024 -0.020465 -0.095062
						CHANNELS 6 Xposition Yposition Zposition Xrotation Yrotation Zrotation
						JOINT forearm.L
						{
							OFFSET 0.247100 -0.135500 -0.061800
							CHANNELS 3 Xrotation Yrotation Zrotation
							JOINT hand.L
							{
								OFFSET 0.217000 -0.143000 0.039300
								CHANNELS 3 Xrotation Yrotation Zrotation
								JOINT palm.01.L
								{
									OFFSET 0.021770 -0.038291 0.012954
									CHANNELS 6 Xposition Yposition Zposition Yrotation Xrotation Zrotation
									JOINT f_index.01.L
									{
										OFFSET 0.053215 -0.044137 0.008236
										CHANNELS 3 Xrotation Yrotation Zrotation
										JOINT f_index.02.L
										{
											OFFSET 0.036108 -0.024723 -0.010656
											CHANNELS 3 Xrotation Yrotation Zrotation
											JOINT f_index.03.L
											{
												OFFSET 0.021342 -0.014948 -0.010846
												CHANNELS 3 Xrotation Yrotation Zrotation
												End Site
												{
													OFFSET 0.015600 -0.009860 -0.013421
												}
											}
										}
									}
									JOINT thumb.01.L
									{
										OFFSET -0.009090 -0.002348 -0.024223
										CHANNELS 6 Xposition Yposition Zposition Xrotation Yrotation Zrotation
										JOINT thumb.02.L
										{
											OFFSET 0.019713 -0.035076 -0.011120
											CHANNELS 3 Xrotation Yrotation Zrotation
											JOINT thumb.03.L
											{
												OFFSET 0.024877 -0.021748 -0.005176
												CHANNELS 3 Xrotation Yrotation Zrotation
												End Site
												{
													OFFSET 0.016125 -0.013029 -0.001569
												}
											}
										}
									}
								}
								JOINT palm.02.L
								{
									OFFSET 0.032823 -0.025104 0.012281
									CHANNELS 6 Xposition Yposition Zposition Yrotation Xrotation Zrotation
									JOINT f_middle.01.L
									{
										OFFSET 0.055723 -0.038469 0.008037
										CHANNELS 3 Xrotation Yrotation Zrotation
										JOINT f_middle.02.L
										{
											OFFSET 0.038167 -0.027473 -0.015582
											CHANNELS 3 Xrotation Yrotation Zrotation
											JOINT f_middle.03.L
											{
												OFFSET 0.021707 -0.016587 -0.017037
												CHANNELS 3 Xrotation Yrotation Zrotation
												End Site
												{
													OFFSET 0.014112 -0.010584 -0.014294
												}
											}
										}
									}
								}
								JOINT palm.03.L
								{
									OFFSET 0.039230 -0.011402 0.008390
									CHANNELS 6 Xposition Yposition Zposition Yrotation Xrotation Zrotation
									JOINT f_ring.01.L
									{
										OFFSET 0.061796 -0.031470 0.007910
										CHANNELS 3 Xrotation Yrotation Zrotation
										JOINT f_ring.02.L
										{
											OFFSET 0.033092 -0.023401 -0.019127
											CHANNELS 3 Xrotation Yrotation Zrotation
											JOINT f_ring.03.L
											{
												OFFSET 0.021392 -0.015362 -0.017824
												CHANNELS 3 Xrotation Yrotation Zrotation
												End Site
												{
													OFFSET 0.008670 -0.007297 -0.014686
												}
											}
										}
									}
								}
								JOINT palm.04.L
								{
									OFFSET 0.043417 0.002450 0.002889
									CHANNELS 6 Xposition Yposition Zposition Yrotation Xrotation Zrotation
									JOINT f_pinky.01.L
									{
										OFFSET 0.069986 -0.026156 0.003627
										CHANNELS 3 Xrotation Yrotation Zrotation
										JOINT f_pinky.02.L
										{
											OFFSET 0.018520 -0.012813 -0.016429
											CHANNELS 3 Xrotation Yrotation Zrotation
											JOINT f_pinky.03.L
											{
												OFFSET 0.013822 -0.009796 -0.014947
												CHANNELS 3 Xrotation Yrotation Zrotation
												End Site
												{
													OFFSET 0.007238 -0.006103 -0.011657
												}
											}
										}
									}
								}
							}
						}
					}
				}
				JOINT shoulder.R
				{
					OFFSET -0.016662 0.078957 0.057696
					CHANNELS 6 Xposition Yposition Zposition Yrotation Xrotation Zrotation
					JOINT upper_arm.R
					{
						OFFSET -0.176972 -0.020537 -0.095144
						CHANNELS 6 Xposition Yposition Zposition Xrotation Yrotation Zrotation
						JOINT forearm.R
						{
							OFFSET -0.247100 -0.135500 -0.061800
							CHANNELS 3 Xrotation Yrotation Zrotation
							JOINT hand.R
							{
								OFFSET -0.217000 -0.143000 0.039300
								CHANNELS 3 Xrotation Yrotation Zrotation
								JOINT palm.01.R
								{
									OFFSET -0.021773 -0.038278 0.012988
									CHANNELS 6 Xposition Yposition Zposition Yrotation Xrotation Zrotation
									JOINT f_index.01.R
									{
										OFFSET -0.053212 -0.044139 0.008249
										CHANNELS 3 Xrotation Yrotation Zrotation
										JOINT f_index.02.R
										{
											OFFSET -0.036049 -0.024835 -0.010634
											CHANNELS 3 Xrotation Yrotation Zrotation
											JOINT f_index.03.R
											{
												OFFSET -0.021371 -0.014881 -0.010866
												CHANNELS 3 Xrotation Yrotation Zrotation
												End Site
												{
													OFFSET -0.015584 -0.009883 -0.013422
												}
											}
										}
									}
									JOINT thumb.01.R
									{
										OFFSET 0.009113 -0.002381 -0.024211
										CHANNELS 6 Xposition Yposition Zposition Xrotation Yrotation Zrotation
										JOINT thumb.02.R
										{
											OFFSET -0.019694 -0.035097 -0.011088
											CHANNELS 3 Xrotation Yrotation Zrotation
											JOINT thumb.03.R
											{
												OFFSET -0.024867 -0.021762 -0.005168
												CHANNELS 3 Xrotation Yrotation Zrotation
												End Site
												{
													OFFSET -0.016120 -0.013036 -0.001565
												}
											}
										}
									}
								}
								JOINT palm.02.R
								{
									OFFSET -0.032828 -0.025095 0.012286
									CHANNELS 6 Xposition Yposition Zposition Yrotation Xrotation Zrotation
									JOINT f_middle.01.R
									{
										OFFSET -0.055721 -0.038472 0.008040
										CHANNELS 3 Xrotation Yrotation Zrotation
										JOINT f_middle.02.R
										{
											OFFSET -0.038101 -0.027593 -0.015557
											CHANNELS 3 Xrotation Yrotation Zrotation
											JOINT f_middle.03.R
											{
												OFFSET -0.021730 -0.016530 -0.017054
												CHANNELS 3 Xrotation Yrotation Zrotation
												End Site
												{
													OFFSET -0.014096 -0.010608 -0.014293
												}
											}
										}
									}
								}
								JOINT palm.03.R
								{
									OFFSET -0.039192 -0.011488 0.008390
									CHANNELS 6 Xposition Yposition Zposition Yrotation Xrotation Zrotation
									JOINT f_ring.01.R
									{
										OFFSET -0.061839 -0.031387 0.007876
										CHANNELS 3 Xrotation Yrotation Zrotation
										JOINT f_ring.02.R
										{
											OFFSET -0.033068 -0.023437 -0.019125
											CHANNELS 3 Xrotation Yrotation Zrotation
											JOINT f_ring.03.R
											{
												OFFSET -0.021371 -0.015393 -0.017822
												CHANNELS 3 Xrotation Yrotation Zrotation
												End Site
												{
													OFFSET -0.008654 -0.007321 -0.014684
												}
											}
										}
									}
								}
								JOINT palm.04.R
								{
									OFFSET -0.043421 0.002443 0.002845
									CHANNELS 6 Xposition Yposition Zposition Yrotation Xrotation Zrotation
									JOINT f_pinky.01.R
									{
										OFFSET -0.069983 -0.026169 0.003599
										CHANNELS 3 Xrotation Yrotation Zrotation
										JOINT f_pinky.02.R
										{
											OFFSET -0.018501 -0.012842 -0.016428
											CHANNELS 3 Xrotation Yrotation Zrotation
											JOINT f_pinky.03.R
											{
												OFFSET -0.013806 -0.009821 -0.014946
												CHANNELS 3 Xrotation Yrotation Zrotation
												End Site
												{
													OFFSET -0.007226 -0.006121 -0.011655
												}
											}
										}
									}
								}
							}
						}
					}
				}
			}
		}
	}
	JOINT pelvis.L
	{
		OFFSET 0.000000 0.000000 0.000000
		CHANNELS 6 Xposition Yposition Zposition Xrotation Yrotation Zrotation
		JOINT thigh.L
		{
			OFFSET 0.101675 0.001054 -0.000000
			CHANNELS 3 Xrotation Yrotation Zrotation
			JOINT shin.L
			{
				OFFSET 0.000000 -0.534800 0.041000
				CHANNELS 3 Xrotation Yrotation Zrotation
				JOINT foot.L
				{
					OFFSET 0.000000 -0.452000 -0.044800
					CHANNELS 3 Xrotation Yrotation Zrotation
					JOINT toe.L
					{
						OFFSET -0.000000 -0.068500 0.109600
						CHANNELS 3 Xrotation Yrotation Zrotation
						End Site
						{
							OFFSET -0.000000 0.000000 0.067200
						}
					}
				}
				JOINT heel.L
				{
					OFFSET 0.000000 -0.452000 -0.044800
					CHANNELS 3 Xrotation Yrotation Zrotation
					JOINT heel.02.L
					{
						OFFSET -0.038000 -0.085200 0.016200
						CHANNELS 6 Xposition Yposition Zposition Xrotation Yrotation Zrotation
						End Site
						{
							OFFSET 0.080000 -0.000000 0.000000
						}
					}
				}
			}
		}
	}
	JOINT pelvis.R
	{
		OFFSET 0.000000 0.000000 0.000000
		CHANNELS 6 Xposition Yposition Zposition Xrotation Yrotation Zrotation
		JOINT thigh.R
		{
			OFFSET -0.094325 0.001054 0.000000
			CHANNELS 3 Xrotation Yrotation Zrotation
			JOINT shin.R
			{
				OFFSET 0.000000 -0.534800 0.041000
				CHANNELS 3 Xrotation Yrotation Zrotation
				JOINT foot.R
				{
					OFFSET 0.000000 -0.452000 -0.044800
					CHANNELS 3 Xrotation Yrotation Zrotation
					JOINT toe.R
					{
						OFFSET -0.000000 -0.068500 0.109600
						CHANNELS 3 Xrotation Yrotation Zrotation
						End Site
						{
							OFFSET -0.000000 0.000000 0.067200
						}
					}
				}
				JOINT heel.R
				{
					OFFSET 0.000000 -0.452000 -0.044800
					CHANNELS 3 Xrotation Yrotation Zrotation
					JOINT heel.02.R
					{
						OFFSET 0.038000 -0.085200 0.016200
						CHANNELS 6 Xposition Yposition Zposition Xrotation Yrotation Zrotation
						End Site
						{
							OFFSET -0.080000 0.000000 -0.000000
						}
					}
				}
			}
		}
	}
}
MOTION
Frames: 4
Frame Time: 0.041667
-0.016936 0.226076 -0.004518 -64.775315 15.247194 99.561571 0.000000 0.000002 -0.000001 -0.000001 -0.000001 0.000001 0.000001 0.000002 0.000000 0.000004 0.000003 -0.000001 0.000924 0.155147 0.009274 -13.467825 0.047297 -8.340565 0.019937 0.078966 0.057518 -41.576584 2.754413 32.333030 0.177024 -0.020465 -0.095062 -18.963371 17.211331 -66.482937 -11.245809 -10.069535 -17.545858 0.000001 -0.000001 -0.000006 0.021770 -0.038291 0.012954 0.000001 0.000004 0.000006 -0.000001 -0.000001 0.000005 -0.000000 0.000001 0.000008 -0.000004 -0.000000 -0.000002 -0.009090 -0.002348 -0.024223 0.000002 -0.000003 0.000002 -0.000002 0.000002 0.000005 0.000001 -0.000000 0.000003 0.032823 -0.025104 0.012281 -0.000000 0.000003 0.000012 0.000005 -0.000001 -0.000007 -0.000001 -0.000005 0.000003 -0.000000 -0.000001 0.000003 0.039230 -0.011402 0.008390 -0.000001 0.000004 0.000009 -0.000000 0.000000 0.000001 -0.000000 0.000004 0.000001 0.000002 -0.000000 0.000004 0.043417 0.002450 0.002889 -0.000001 0.000004 0.000002 0.000001 -0.000005 -0.000000 -0.000003 -0.000001 0.000003 -0.000002 -0.000002 -0.000002 -0.016662 0.078957 0.057696 -26.958881 5.958478 -23.987607 -0.176972 -0.020537 -0.095144 -13.015007 -9.926970 57.183652 -7.423710 8.093888 15.578565 -0.000001 0.000001 -0.000004 -0.021773 -0.038278 0.012988 0.000003 -0.000003 -0.000003 -0.000000 0.000002 -0.000003 0.000001 0.000001 -0.000004 -0.000001 0.000000 -0.000001 0.009114 -0.002381 -0.024211 -0.000000 -0.000003 -0.000001 -0.000002 -0.000001 -0.000005 0.000002 0.000000 0.000003 -0.032828 -0.025095 0.012286 0.000003 -0.000003 -0.000003 0.000002 0.000000 0.000001 0.000000 0.000002 -0.000004 -0.000001 0.000000 -0.000000 -0.039192 -0.011488 0.008390 0.000002 0.000002 0.000001 0.000002 0.000006 -0.000003 0.000001 0.000000 0.000002 -0.000000 -0.000001 -0.000002 -0.043421 0.002443 0.002845 0.000001 0.000000 -0.000001 -0.000000 0.000002 -0.000001 -0.000003 -0.000001 0.000003 -0.000003 0.000000 -0.000001 -0.000000 0.000000 -0.000000 -1.943008 -1.305234 13.827978 -9.518660 0.610751 8.885886 22.729640 -2.587541 27.128207 0.000000 -0.000000 -0.000001 0.000000 -0.000001 -0.000002 0.000000 -0.000000 -0.000001 -0.038000 -0.085200 0.016200 0.000002 0.000000 -0.000003 -0.000000 0.000000 -0.000000 -1.943935 -1.305475 15.062145 -8.411969 1.502850 18.981835 41.996320 -1.711714 17.548923 0.000000 -0.000001 -0.000000 -0.000001 -0.000003 0.000003 0.000000 -0.000002 -0.000002 0.038000 -0.085200 0.016200 0.000001 0.000001 -0.000001 
-0.018522 0.224608 -0.005505 -63.693133 15.518040 99.886824 -0.000001 -0.000002 -0.000000 -0.000003 -0.000001 0.000001 0.000000 0.000003 0.000000 0.000000 0.000001 0.000001 0.000924 0.155148 0.009274 -16.788859 0.061645 -7.092129 0.019937 0.078966 0.057518 -37.804325 1.084309 30.128391 0.177024 -0.020465 -0.095062 -18.875957 16.832817 -65.713564 -9.547147 -9.063467 -17.254444 -0.000007 0.000002 0.000004 0.021770 -0.038291 0.012954 0.000002 0.000000 -0.000002 -0.000001 -0.000001 -0.000000 -0.000002 -0.000002 0.000006 0.000001 0.000005 -0.000007 -0.009090 -0.002348 -0.024224 -0.000003 -0.000003 0.000004 0.000001 -0.000001 0.000003 0.000001 0.000004 -0.000001 0.032823 -0.025104 0.012281 -0.000000 0.000003 0.000002 0.000002 0.000004 -0.000005 -0.000003 0.000000 0.000001 -0.000003 -0.000002 0.000002 0.039230 -0.011402 0.008390 -0.000001 0.000002 0.000004 0.000001 0.000005 -0.000004 -0.000002 0.000006 0.000001 0.000003 -0.000006 0.000006 0.043417 0.002450 0.002889 -0.000001 0.000004 -0.000002 -0.000003 -0.000000 -0.000005 0.000000 0.000000 0.000001 -0.000002 0.000000 0.000003 -0.016662 0.078957 0.057696 -23.662092 4.590939 -23.246714 -0.176972 -0.020537 -0.095144 -12.588848 -10.117394 56.091791 -5.657494 6.767329 16.780359 -0.000001 0.000001 0.000002 -0.021773 -0.038278 0.012988 -0.000000 -0.000005 0.000000 -0.000001 0.000002 0.000001 -0.000003 -0.000003 -0.000008 -0.000004 0.000002 -0.000001 0.009114 -0.002381 -0.024212 -0.000001 -0.000001 -0.000001 -0.000001 0.000001 0.000004 0.000000 -0.000001 -0.000006 -0.032828 -0.025095 0.012286 -0.000001 -0.000003 -0.000003 -0.000000 0.000004 0.000003 0.000004 -0.000001 -0.000001 -0.000000 0.000003 -0.000004 -0.039192 -0.011488 0.008390 -0.000001 -0.000003 -0.000000 -0.000001 0.000003 -0.000002 0.000001 0.000002 0.000004 0.000003 0.000007 0.000003 -0.043421 0.002443 0.002845 -0.000002 -0.000005 -0.000002 -0.000003 0.000004 -0.000002 0.000003 0.000000 0.000002 0.000004 0.000000 0.000002 0.000000 0.000000 0.000000 -1.980528 -1.206178 12.648931 -13.758883 0.594593 8.940142 37.132026 -2.979657 31.681248 0.000000 -0.000001 -0.000000 0.000000 0.000004 -0.000002 0.000002 0.000002 -0.000001 -0.038000 -0.085200 0.016200 -0.000000 -0.000002 -0.000000 0.000000 0.000000 0.000000 -1.977890 -1.205562 13.883165 -15.622113 1.290194 15.512019 61.278435 -2.271672 23.593881 0.000002 -0.000002 0.000002 0.000000 -0.000001 -0.000001 0.000003 0.000001 -0.000003 0.038000 -0.085200 0.016200 -0.000003 -0.000001 -0.000003 
-0.011292 0.229146 -0.005755 -57.128344 16.226115 93.008107 0.000001 -0.000003 0.000002 0.000002 0.000001 0.000001 -0.000002 0.000001 -0.000001 0.000000 0.000002 -0.000001 0.000924 0.155147 0.009274 -15.352727 0.053815 -4.328270 0.019937 0.078966 0.057518 -18.734767 6.049480 44.578964 0.177024 -0.020465 -0.095062 -21.758621 12.138250 -52.488180 -72.235903 26.146114 -69.728814 -0.000000 -0.000003 0.000002 0.021770 -0.038291 0.012954 0.000001 -0.000000 -0.000001 -0.000001 -0.000004 0.000003 -0.000000 -0.000000 0.000007 0.000001 0.000000 -0.000001 -0.009090 -0.002348 -0.024224 -0.000002 -0.000003 0.000002 -0.000002 0.000002 0.000001 -0.000004 0.000006 0.000006 0.032823 -0.025104 0.012281 -0.000001 0.000003 0.000005 0.000002 0.000002 -0.000002 -0.000005 -0.000002 -0.000000 -0.000004 -0.000002 0.000004 0.039230 -0.011402 0.008390 0.000001 -0.000000 0.000004 -0.000001 0.000002 -0.000002 0.000002 0.000003 -0.000002 0.000005 0.000002 -0.000003 0.043417 0.002450 0.002889 0.000000 -0.000000 -0.000005 -0.000000 -0.000003 0.000001 -0.000000 0.000000 0.000001 0.000002 0.000003 0.000001 -0.016662 0.078957 0.057696 -13.306083 6.253636 -34.631074 -0.176972 -0.020537 -0.095144 -30.042768 -9.992317 54.179485 -68.156538 -32.066772 76.064081 -0.000001 0.000002 -0.000002 -0.021773 -0.038278 0.012988 -0.000004 -0.000003 0.000002 -0.000003 0.000003 -0.000004 -0.000001 -0.000000 -0.000003 -0.000002 0.000000 0.000001 0.009114 -0.002381 -0.024211 0.000002 0.000001 -0.000000 0.000002 0.000001 0.000000 -0.000002 -0.000001 -0.000003 -0.032828 -0.025095 0.012286 0.000001 -0.000002 -0.000003 0.000000 0.000002 -0.000001 0.000002 0.000003 0.000002 -0.000007 0.000003 -0.000008 -0.039192 -0.011488 0.008390 -0.000003 -0.000000 0.000001 -0.000000 0.000003 -0.000003 -0.000001 0.000001 -0.000005 -0.000000 -0.000004 0.000002 -0.043421 0.002443 0.002845 -0.000001 -0.000002 0.000002 -0.000001 0.000004 0.000003 0.000001 -0.000004 -0.000000 -0.000004 -0.000000 0.000003 -0.000000 0.000000 0.000000 -1.708262 -0.925778 10.136301 1.930742 0.343495 4.663059 16.644310 -2.625761 27.563177 0.000002 -0.000005 -0.000002 0.000001 0.000001 -0.000000 0.000000 -0.000001 -0.000001 -0.038000 -0.085200 0.016200 0.000005 -0.000003 0.000001 -0.000000 0.000000 0.000000 -1.700030 -0.924211 11.370622 -0.107241 1.008569 12.918249 23.367882 -1.331921 13.567481 -0.000003 -0.000000 -0.000003 0.000002 -0.000005 0.000003 0.000005 -0.000002 -0.000004 0.038000 -0.085200 0.016200 -0.000003 -0.000003 -0.000001 
-0.009514 0.230925 -0.005554 -52.688557 15.710359 90.089840 0.000001 0.000003 0.000000 -0.000000 -0.000002 0.000001 -0.000000 -0.000000 -0.000001 0.000001 0.000002 0.000000 0.000924 0.155148 0.009274 -11.084933 0.038020 -2.980064 0.019937 0.078966 0.057518 -7.668364 7.197503 48.375132 0.177025 -0.020465 -0.095062 -32.629228 2.961859 -37.877589 -137.511106 129.269881 -32.707976 0.000001 -0.000001 -0.000000 0.021770 -0.038291 0.012954 0.000001 0.000001 -0.000002 -0.000004 -0.000001 -0.000002 -0.000003 -0.000001 0.000003 0.000003 0.000002 0.000002 -0.009090 -0.002348 -0.024224 -0.000002 -0.000001 -0.000001 -0.000001 -0.000001 0.000001 -0.000003 0.000001 -0.000002 0.032823 -0.025104 0.012281 -0.000000 0.000005 0.000002 0.000000 0.000005 -0.000008 -0.000001 0.000000 -0.000002 -0.000003 0.000003 0.000003 0.039230 -0.011402 0.008390 0.000000 0.000003 0.000004 0.000000 0.000000 -0.000000 -0.000001 0.000005 -0.000001 -0.000004 0.000001 0.000001 0.043417 0.002450 0.002889 -0.000000 0.000003 -0.000005 -0.000001 -0.000004 0.000001 -0.000000 0.000001 0.000001 -0.000001 -0.000002 -0.000000 -0.016662 0.078957 0.057696 -11.886847 7.748000 -41.277640 -0.176972 -0.020537 -0.095144 -33.724428 -0.750522 37.973987 -150.798378 -122.727462 17.611926 -0.000001 0.000000 0.000000 -0.021773 -0.038278 0.012988 -0.000001 -0.000000 -0.000007 -0.000001 0.000003 -0.000004 -0.000003 -0.000000 -0.000003 -0.000003 -0.000002 0.000001 0.009113 -0.002381 -0.024212 0.000002 0.000001 -0.000001 -0.000001 -0.000002 -0.000003 0.000000 0.000000 -0.000003 -0.032828 -0.025095 0.012286 -0.000000 -0.000003 0.000001 0.000000 0.000003 -0.000004 0.000002 0.000001 0.000001 0.000001 0.000008 -0.000003 -0.039192 -0.011488 0.008390 -0.000001 0.000000 -0.000000 -0.000002 0.000002 -0.000003 0.000000 0.000001 -0.000002 0.000000 0.000002 -0.000004 -0.043421 0.002443 0.002845 -0.000001 0.000000 -0.000001 -0.000001 0.000002 -0.000001 0.000001 0.000000 0.000002 -0.000001 0.000001 -0.000001 0.000000 0.000000 0.000000 -1.633498 -0.784416 8.612288 9.098545 0.450678 5.653480 7.193279 -1.886477 19.411182 0.000002 0.000001 -0.000000 0.000005 -0.000001 0.000002 0.000000 -0.000002 -0.000000 -0.038000 -0.085200 0.016200 -0.000002 -0.000003 -0.000005 0.000000 0.000000 0.000000 -1.622064 -0.782572 9.846630 9.667252 0.938663 12.693718 5.235619 -0.839382 8.500825 -0.000003 -0.000003 -0.000000 0.000004 0.000001 -0.000001 0.000003 -0.000000 0.000002 0.038000 -0.085200 0.016200 -0.000003 0.000003 -0.000004 
